<svg width="200" height="50" viewBox="0 0 200 50" fill="none" xmlns="http://www.w3.org/2000/svg">
<g clip-path="url(#clip0_2_656)">
<path d="M25 0C11.2573 0 0 11.1111 0 25C0 38.7427 11.1111 50 25 50C38.7427 50 50 38.8889 50 25C50 11.2573 38.7427 0 25 0ZM25 47.9532C12.2807 47.9532 2.04678 37.7193 2.04678 25C2.04678 12.2807 12.2807 2.04678 25 2.04678C37.7193 2.04678 47.9532 12.2807 47.9532 25C48.0994 37.7193 37.7193 47.9532 25 47.9532Z" fill="white"/>
<path d="M24.5 43C25.3723 43 25.8085 42.4217 25.9539 41.6988C26.0993 41.988 26.3901 42.2771 26.6809 42.4217C26.9716 42.4217 27.4078 42.4217 27.6986 42.2771C27.9894 42.1325 28.2801 41.8434 28.4255 41.5542C28.5709 41.2651 28.5709 40.8313 28.4255 40.5422C28.8617 41.1205 29.4433 41.2651 30.1702 40.9759C31.0426 40.5422 31.3333 39.9639 30.8972 39.0964C29.8794 36.6386 28.8617 34.3253 27.844 31.8675C27.6986 31.5783 27.6986 31.4337 27.5532 31.1446C27.4078 31 27.4078 30.8554 27.2624 30.7108C27.2624 30.5663 27.117 30.5663 26.9716 30.4217C28.5709 30.5663 29.2979 31.1446 29.734 31.4337C29.8794 31.5783 29.8794 31.5783 30.3156 31.4337C30.461 31.4337 30.7518 31.4337 30.8972 31.4337C31.0426 31.5783 31.3333 31.7229 31.4787 31.7229C32.0603 32.1566 32.6418 32.5904 33.2234 33.0241C33.5142 33.3133 33.805 33.6024 33.805 34.0361C33.805 34.3253 32.9326 35.0482 32.7872 35.3374C32.2057 35.9157 33.078 36.7831 34.2411 36.7831C33.9504 36.494 33.805 36.2048 33.9504 35.9157C34.0957 35.9157 34.2411 35.9157 34.5319 35.7711C34.8227 35.6265 34.6773 34.9036 34.8227 34.759C35.2589 34.3253 36.422 34.3253 37.2943 34.3253C37.5851 34.3253 38.0213 34.1807 37.8759 33.747C38.3121 33.747 38.4574 34.1807 38.4574 34.4699C38.8936 34.1807 39.1844 33.1687 37.7305 32.8795C38.0213 32.5904 38.4574 32.5904 38.7482 32.8795C39.039 32.4458 38.3121 31.7229 37.1489 32.1566C37.1489 32.1566 36.5674 31.4337 35.1135 33.1687C34.9681 33.0241 34.6773 32.8795 34.5319 32.7349C33.9504 32.1566 32.4965 30.7108 32.4965 30.7108C32.4965 29.8434 32.3511 28.253 31.3333 27.3855C30.8972 26.9518 30.461 26.8072 29.4433 26.5181C29.4433 26.5181 29.8794 25.7952 30.0248 25.506C30.8972 26.3735 32.6418 26.6627 32.6418 25.2169C34.0957 26.6627 35.4043 25.7952 35.4043 24.9277C35.4043 25.3614 35.5496 25.7952 35.695 26.2289C35.8404 26.6626 36.5674 28.5422 38.1667 28.5422C38.1667 29.1205 38.1667 31.2892 40.2021 31.7229C40.3475 31.7229 40.3475 31.7229 40.4929 31.8675C41.3652 32.8795 44.7092 33.8916 45 33.6024C44.7092 33.4578 44.2731 33.1687 44.2731 32.012C44.2731 31.2892 44.1277 27.241 44.1277 21.6024C44.1277 19.5783 43.9823 13.0723 37.4397 12.2048C36.422 12.0602 35.5496 12.2048 34.6773 12.7831C33.5142 13.6506 32.9326 15.0964 33.6596 16.6867V16.8313C33.9504 17.2651 33.805 17.5542 33.5142 17.8434C32.9326 18.4217 32.3511 18.7108 31.6241 18.8554C31.1879 18.8554 30.7518 18.7108 30.461 18.4217C29.734 17.6988 29.2979 16.8313 29.0071 15.8193C28.7163 13.9398 29.1525 12.9277 29.1525 12.7831C29.734 11.7711 30.7518 10.9036 32.0603 10.9036C32.6418 9.74699 34.3865 10.1807 34.3865 10.1807C34.8227 10.3253 34.9681 10.3253 35.1135 10.6145C35.1135 10.6145 35.8404 9.45783 35.1135 9.0241C34.3865 8.59036 32.7872 8.44578 32.7872 8.44578C32.7872 7.72289 31.6241 7.14458 29.2979 7.57831C26.6809 8.01205 26.0993 7 26.0993 7C25.9539 8.3012 26.9716 8.87952 27.2624 9.16867C26.2447 10.3253 24.7908 12.494 24.5 15.5301C24.2092 12.494 22.7553 10.3253 21.7376 9.16867C22.0284 9.0241 23.0461 8.3012 22.9007 7C22.9007 7 22.3191 8.01205 19.7021 7.57831C17.5213 7.14458 16.2128 7.72289 16.2128 8.44578C16.2128 8.44578 14.6135 8.59036 13.8865 9.0241C13.1596 9.45783 13.8865 10.6145 13.8865 10.6145C14.0319 10.4699 14.1773 10.3253 14.6135 10.1807C14.6135 10.1807 16.3582 9.74699 16.9397 10.9036C18.2482 11.0482 19.266 11.7711 19.8475 12.7831C19.8475 12.7831 20.4291 13.7952 19.9929 15.8193C19.8475 16.8313 19.266 17.6988 18.539 18.4217C18.2482 18.7108 17.8121 19 17.3759 18.8554C16.6489 18.7108 16.0674 18.4217 15.4858 17.8434C15.195 17.5542 15.0496 17.2651 15.3404 16.8313V16.6867C16.0674 15.0964 15.4858 13.6506 14.3227 12.7831C13.4504 12.2048 12.578 12.0602 11.5603 12.2048C5.16312 13.0723 4.87234 19.5783 4.87234 21.6024C4.87234 27.241 4.72695 31.2892 4.72695 32.012C4.72695 33.1687 4.29078 33.4578 4 33.6024C4.43617 33.8916 7.78014 32.8795 8.50709 31.8675C8.50709 31.8675 8.65248 31.7229 8.79787 31.7229C10.8333 31.2892 10.8333 29.1205 10.8333 28.5422C12.4326 28.5422 13.1596 26.6626 13.305 26.2289C13.4504 25.7952 13.5957 25.3614 13.5957 24.9277C13.5957 25.7952 14.9043 26.5181 16.3582 25.2169C16.3582 26.6627 18.1028 26.3735 18.9752 25.506C19.1206 25.7952 19.5567 26.5181 19.5567 26.5181C18.539 26.6627 18.1028 26.9518 17.6667 27.3855C16.5035 28.3976 16.5035 29.988 16.5035 30.7108C16.5035 30.7108 15.0496 32.1566 14.4681 32.7349C14.3227 32.8795 14.0319 33.0241 13.8865 33.1687C12.2872 31.4337 11.8511 32.1566 11.8511 32.1566C10.6879 31.7229 10.1064 32.4458 10.2518 32.8795C10.5426 32.5904 10.9787 32.7349 11.2695 32.8795C9.67021 33.1687 10.1064 34.3253 10.5426 34.4699C10.5426 34.1807 10.6879 33.747 11.1241 33.747C11.1241 34.1807 11.4149 34.3253 11.7057 34.3253C12.4326 34.3253 13.7411 34.3253 14.1773 34.759C14.4681 34.9036 14.3227 35.6265 14.4681 35.7711C14.6135 35.9157 14.9043 35.9157 15.0496 35.9157C15.0496 36.2048 15.0496 36.3494 14.7589 36.7831C15.922 36.9277 16.6489 35.9157 16.2128 35.3374C15.922 35.0482 15.195 34.3253 15.195 34.0361C15.195 33.747 15.4858 33.3133 15.7766 33.0241C16.3582 32.5904 16.9397 32.1566 17.5213 31.7229C17.6667 31.5783 17.8121 31.4337 18.1028 31.4337C18.2482 31.2892 18.539 31.2892 18.6844 31.4337C19.1206 31.5783 19.1206 31.5783 19.266 31.4337C19.7021 31.1446 20.4291 30.5663 22.0284 30.4217C21.883 30.4217 21.883 30.5663 21.7376 30.7108C21.5922 30.8554 21.5922 31 21.4468 31.1446C21.3014 31.2892 21.3014 31.5783 21.156 31.8675C20.1383 34.3253 19.1206 36.6386 18.1028 39.0964C17.8121 39.9639 18.1028 40.5422 18.8298 40.9759C19.4113 41.2651 20.1383 41.1205 20.5745 40.5422C20.4291 40.9759 20.4291 41.2651 20.5745 41.5542C20.7199 41.8434 21.0106 42.1325 21.3014 42.2771C21.5922 42.4217 22.0284 42.4217 22.3191 42.4217C22.7553 42.2771 22.9007 42.1325 23.0461 41.6988C23.1915 42.4217 23.6277 43 24.5 43Z" fill="white"/>
<path d="M67.95 16.2927C69.3 16.2927 72.3 16.1463 73.95 16C73.95 16.2927 73.95 16.7317 73.95 16.878C73.95 17.0244 73.95 17.4634 73.95 17.7561C72.45 17.6098 70.05 17.4634 69.3 17.4634C68.7 17.4634 66.75 17.4634 65.55 17.6098V23.7561H66.9C69.6 23.7561 75 24.1951 75 28.7317C75 32.3902 71.85 34 67.8 34C67.35 34 65.7 34 64.5 34C64.05 34 63.45 34 63 34C63.15 31.2195 63.15 27.561 63.15 24.4878C63.15 21.7073 63.15 17.4634 63 16.1463C64.65 16.1463 67.35 16.2927 67.95 16.2927ZM65.55 32.6829C66.15 32.6829 67.05 32.6829 67.65 32.6829C70.65 32.6829 72.3 31.3659 72.3 28.7317C72.3 25.9512 70.2 25.0732 65.4 25.0732V32.6829H65.55Z" fill="white"/>
<path d="M77.0132 22.7528C78.0263 21.5843 79.7632 21 81.2105 21C83.8158 21 85.5526 22.3146 85.5526 25.382V31.5169C85.5526 32.8315 85.8421 33.1236 86.2763 33.1236C86.4211 33.1236 86.7105 33.1236 86.8553 32.9775L87 33.5618C86.2763 34 85.5526 34 85.1184 34C84.25 34 83.8158 33.5618 83.671 32.9775L83.5263 32.3933C82.2237 33.4157 80.7763 34 79.6184 34C77.4474 34 76 32.8315 76 30.7865C76 28.5955 77.5921 27.573 79.9079 27.1348L82.3684 26.6966C83.2368 26.5506 83.671 26.2584 83.671 25.6742C83.671 23.0449 82.5132 22.3146 80.6316 22.3146C79.1842 22.3146 78.1711 22.7528 77.3026 24.3595H77.0132V22.7528ZM83.671 27.427L82.0789 27.7191C80.3421 28.0112 78.3158 28.5955 78.3158 30.4944C78.3158 31.9551 79.0395 32.6854 80.6316 32.6854C81.6447 32.6854 82.5132 32.3933 83.5263 31.2247V27.427H83.671Z" fill="white"/>
<path d="M91.32 22.0617C91.6133 22.0617 92.0533 22.0617 92.4933 22.0617C92.3467 23.8663 92.2 26.7815 92.2 26.9203C93.2267 26.9203 94.6933 27.0591 95.5733 27.0591C96.4533 27.0591 97.92 27.0591 98.6533 26.9203C98.6533 26.7815 98.6533 23.8663 98.5067 22.0617C98.9467 22.0617 99.5333 22.0617 99.8267 22.0617C100.12 22.0617 100.56 22.0617 101 22.0617C100.853 23.8663 100.707 26.7815 100.707 28.0308C100.707 29.0026 100.707 32.1954 101 34C100.56 34 100.267 34 99.8267 34C99.3867 34 98.9467 34 98.5067 34C98.6533 32.1954 98.6533 29.0026 98.6533 28.3085C97.6267 28.1697 96.0133 28.1697 95.5733 28.1697C94.84 28.1697 93.2267 28.1697 92.2 28.3085C92.2 29.1414 92.2 32.1954 92.4933 34C92.0533 34 91.76 34 91.32 34C90.88 34 90.44 34 90 34C90.1467 32.1954 90.2933 29.0026 90.2933 28.0308C90.2933 26.7815 90.2933 23.8663 90 22.0617C90.44 21.9229 91.0267 22.0617 91.32 22.0617Z" fill="white"/>
<path d="M105.303 21.1395C105.592 21.1395 106.026 21.1395 106.461 21.1395C106.316 22.9535 106.316 25.8837 106.316 26.3023H106.75C107.618 26.3023 111.671 21.8372 112.105 21.1395C112.395 21.1395 112.974 21.1395 113.263 21.1395C113.553 21.1395 114.132 21.1395 114.421 21.1395L108.632 26.1628C109.355 27 113.263 31.186 115 33C114.276 33 113.842 33 113.553 33C113.118 33 112.395 33 111.961 33C111.092 31.6047 108.342 28.5349 106.75 26.8605H106.316C106.316 27.6977 106.316 31.186 106.461 33C106.171 33 105.737 33 105.303 33C104.868 33 104.434 33 104 33C104.145 31.186 104.289 27.9767 104.289 27C104.289 25.7442 104.289 22.814 104 21C104.434 21 104.868 21.1395 105.303 21.1395Z" fill="white"/>
<path d="M125.734 16.1393C126.646 16.1393 127.709 16 128.468 16C133.177 16 135 17.2541 135 20.3197C135 24.082 131.506 25.3361 127.253 25.3361C126.949 25.3361 126.038 25.3361 125.582 25.1967V29.2377C125.582 30.3525 125.582 31.8852 125.734 33C125.278 33 124.823 33 124.367 33C123.911 33 123.304 33 123 33C123.152 30.3525 123.152 26.8689 123.152 23.9426C123.152 21.2951 123.152 17.2541 123 16C124.063 16.1393 125.127 16.1393 125.734 16.1393ZM126.797 24.2213C130.443 24.2213 132.418 22.9672 132.418 20.459C132.418 18.0902 130.443 17.5328 127.861 17.5328C127.405 17.5328 125.886 17.5328 125.582 17.5328V24.082C126.038 24.2213 126.494 24.2213 126.797 24.2213Z" fill="white"/>
<path d="M147 27.427C147 31.2247 144.6 34 140.929 34C137.259 34 135 31.2247 135 27.7191C135 23.6292 137.541 21 141.212 21C144.741 21 147 23.7753 147 27.427ZM137.259 27.7191C137.259 30.4944 138.388 33.1236 140.929 33.1236C143.329 33.1236 144.741 30.6404 144.741 27.427C144.741 24.7978 143.753 22.0225 141.071 22.0225C138.529 22.0225 137.259 24.7978 137.259 27.7191Z" fill="white"/>
<path d="M159.12 23.8068H158.827C157.947 22.3295 156.773 21.8864 155.453 21.8864C152.52 21.8864 151.2 24.6932 151.2 27.5C151.2 30.6023 152.96 33.1136 156.04 33.1136C157.067 33.1136 157.947 32.9659 159.413 31.3409L159.707 31.6364L159.413 32.8182C158.24 33.5568 156.92 34 155.307 34C151.493 34 149 31.3409 149 27.5C149 23.5114 151.787 21 155.747 21C157.067 21 158.387 21.2955 160 22.0341L159.12 23.8068Z" fill="white"/>
<path d="M172.413 23.9545H172.12C171.24 22.4773 170.067 22.0341 168.747 22.0341C165.813 22.0341 164.493 24.8409 164.493 27.6477C164.493 30.75 166.253 33.2614 169.333 33.2614C170.36 33.2614 171.24 33.1136 172.707 31.4886L172.853 31.7841L172.413 32.8182C171.24 33.5568 169.92 34 168.307 34C164.493 34 162 31.3409 162 27.5C162 23.5114 164.787 21 168.747 21C170.067 21 171.387 21.2955 173 22.0341L172.413 23.9545Z" fill="white"/>
<path d="M175.724 32.8621C175.579 32.8621 175.145 32.8621 175 32.8621C175.145 31.069 175.289 27.8966 175.289 26.931C175.289 25.6897 175.289 22.7931 175 21C175.434 21 176.013 21 176.303 21C176.592 21 177.026 21 177.461 21C177.316 22.7931 177.171 25.6897 177.171 26.931C177.171 27.8966 177.171 29.2759 177.171 29.9655C178.474 28.4483 183.25 22.6552 184.408 21.1379C184.697 21.1379 184.842 21.1379 185.132 21.1379C185.276 21.1379 185.855 21.1379 186 21.1379C185.855 22.931 185.711 25.8276 185.711 27.069C185.711 28.0345 185.711 31.2069 186 33C185.566 33 185.276 33 184.842 33C184.408 33 183.974 33 183.539 33C183.684 31.2069 183.829 28.0345 183.829 27.069C183.829 25.8276 183.829 24.3103 183.829 23.8966C182.237 25.5517 177.75 30.931 176.447 33C176.158 32.8621 175.868 32.8621 175.724 32.8621Z" fill="white"/>
<path d="M189.724 32.8621C189.579 32.8621 189.145 32.8621 189 32.8621C189.145 31.069 189.145 27.8966 189.145 26.931C189.145 25.6897 189.145 22.7931 189 21C189.434 21 190.013 21 190.303 21C190.592 21 191.026 21 191.461 21C191.316 22.7931 191.171 25.6897 191.171 26.931C191.171 27.8966 191.171 29.2759 191.171 29.9655C192.474 28.4483 197.25 22.6552 198.408 21.1379C198.697 21.1379 198.842 21.1379 199.132 21.1379C199.276 21.1379 199.855 21.1379 200 21.1379C199.855 22.931 199.855 25.8276 199.855 27.069C199.855 28.0345 199.855 31.2069 200 33C199.566 33 199.276 33 198.842 33C198.408 33 197.974 33 197.539 33C197.684 31.2069 197.684 28.0345 197.684 27.069C197.684 25.8276 197.684 24.3103 197.684 23.8966C196.092 25.5517 191.605 30.931 190.303 33C190.158 32.8621 190.013 32.8621 189.724 32.8621Z" fill="white"/>
</g>
<defs>
<clipPath id="clip0_2_656">
<rect width="200" height="50" fill="white"/>
</clipPath>
</defs>
</svg>
