<svg width="199" height="49" viewBox="0 0 199 49" fill="none" xmlns="http://www.w3.org/2000/svg">
<path d="M24.1102 49C20.5362 48.953 16.9825 48.1206 13.7794 46.5801C10.5695 45.053 7.73728 42.7975 5.49174 40.0823C3.24282 37.367 1.62777 34.155 0.751133 30.7685C-0.128879 27.3786 -0.226658 23.8142 0.410592 20.3975C1.05121 16.9807 2.43698 13.7083 4.47348 10.9092C6.4965 8.1033 9.11968 5.73374 12.1306 4.05222C15.1314 2.364 18.4964 1.32354 21.9186 1.07182C23.6281 0.944276 25.351 0.981195 27.0436 1.22621C28.7362 1.4645 30.3951 1.90083 32 2.46469C30.3782 1.94446 28.7126 1.55513 27.0234 1.36717C25.3342 1.17251 23.6281 1.18257 21.9456 1.3571C18.5739 1.69945 15.3034 2.8171 12.4206 4.5456C9.53103 6.26739 7.0562 8.64031 5.18154 11.3992C3.30013 14.1581 2.06947 17.3298 1.55022 20.5955C1.03436 23.8646 1.22654 27.2376 2.14364 30.3993C3.05737 33.5576 4.65218 36.5145 6.81344 38.9747C8.97132 41.4349 11.6451 43.4453 14.629 44.7576C17.6062 46.0834 20.8633 46.7479 24.1069 46.7009V49H24.1102Z" fill="url(#paint0_linear_2_684)"/>
<path d="M44.7946 27.5194C44.5872 27.6697 44.3798 27.8131 44.169 27.9531C42.312 29.196 40.2744 30.1588 38.1029 30.7837C38.0995 30.7837 38.0962 30.7837 38.0928 30.7871C37.6412 30.9169 37.1794 31.033 36.7143 31.132C36.7077 31.1354 36.7043 31.1354 36.6943 31.1388C36.6642 31.1456 36.6374 31.1559 36.6073 31.1627C31.1936 32.7504 27.1786 37.4488 26.3555 43.1407C26.3488 43.1817 26.3421 43.2261 26.3388 43.2671C33.5993 42.3417 39.7926 37.7356 43.2087 31.2583C40.4048 38.7975 33.9339 44.3768 26.128 45.5206C25.1543 45.664 24.1639 45.7357 23.1535 45.7357C22.6382 45.7357 22.1263 45.7153 21.6177 45.6777C20.6775 45.6094 19.7507 45.4728 18.844 45.2782C9.37181 43.2398 2.15475 34.6113 1.63279 24.0981C1.61271 23.6952 1.60268 23.2855 1.60268 22.8757C1.60268 15.497 4.89837 8.93438 10.0142 4.75505C10.8038 4.10971 11.6336 3.52242 12.5036 3C11.647 3.47803 10.8239 4.00386 10.0376 4.58091C6.20661 7.38079 3.21874 11.304 1.52907 15.8795C0.538687 18.5632 0 21.469 0 24.5045C0 36.8308 8.92346 47.0333 20.5404 48.7439C20.6073 48.7542 20.6742 48.7644 20.7411 48.7746C21.8051 48.9249 22.8959 49 24 49C24.7361 49 25.4655 48.9659 26.1849 48.901C36.3262 47.9654 44.6508 40.5935 47.197 30.8178C47.7056 28.8682 47.9833 26.8263 48 24.7196C47.0197 25.7507 45.9456 26.6931 44.7946 27.5194Z" fill="url(#paint1_linear_2_684)"/>
<path d="M16.3336 19.4661C16.5569 19.4462 16.7768 19.4229 17 19.3962V43C13.9379 42.0178 11.2157 40.3063 9 38.0655V19C9.56643 19.1265 10.1362 19.2297 10.7126 19.313C10.7793 19.3263 10.8459 19.333 10.9159 19.343C11.9754 19.4895 13.0616 19.5627 14.1612 19.5627C14.8942 19.5627 15.6206 19.5294 16.3336 19.4661Z" fill="url(#paint2_linear_2_684)"/>
<path d="M20 18.4502C22.8976 17.8046 25.602 16.6192 28 15V35.1924C26.3947 37.3377 25.3089 39.9032 24.9092 42.677L24.7361 43.9341C23.7402 44.0195 22.7277 44.0195 21.7352 43.9478C21.1524 43.9068 20.5695 43.8351 20 43.7394V18.4502Z" fill="url(#paint3_linear_2_684)"/>
<path d="M38 0V29.1214C37.8934 29.1589 37.7834 29.1896 37.6768 29.2202L37.3636 29.3121C36.9671 29.4211 36.5806 29.5165 36.2141 29.5948L35.9775 29.6595C33.7284 30.3235 31.6993 31.4779 30 33V13.5017C33.7118 10.3212 36.4573 6.00681 37.7401 1.08286C37.8334 0.725312 37.92 0.367764 37.9933 0.00340522H38V0Z" fill="url(#paint4_linear_2_684)"/>
<path d="M54.533 20H52V7H60V20H57.4173V8.85808H54.533V20V20Z" fill="#333333"/>
<path d="M68 10.2124V11.9036C68 13.9841 66.8399 15.116 64.4769 15.116H63.3598V20H61V7H64.4769C66.8399 7 68 8.13186 68 10.2124ZM63.3598 8.85808V13.2579H64.4769C65.2271 13.2579 65.6369 12.9602 65.6369 12.0345V10.0848C65.6369 9.15576 65.2271 8.86135 64.4769 8.86135H63.3598V8.85808Z" fill="#333333"/>
<path d="M69 9.44144C69 7.25049 70.2355 6 72.5 6C74.7645 6 76 7.25049 76 9.44144V16.5586C76 18.7495 74.7645 20 72.5 20C70.2355 20 69 18.7495 69 16.5586V9.44144ZM71.3065 16.6964C71.3065 17.6747 71.7677 18.0468 72.5 18.0468C73.2323 18.0468 73.6936 17.6747 73.6936 16.6964V9.30364C73.6936 8.3253 73.2323 7.95325 72.5 7.95325C71.7677 7.95325 71.3065 8.3253 71.3065 9.30364V16.6964Z" fill="#333333"/>
<path d="M82.3542 18.5312H81.4847C79.1474 18.5312 78 17.3993 78 15.3188V11.7728C78 9.69225 79.1474 8.56039 81.4847 8.56039H82.3542V7H84.6458V8.56039H85.5186C87.8526 8.56039 89 9.69225 89 11.7728V15.3188C89 17.3993 87.8526 18.5312 85.5186 18.5312H84.6458V20H82.3542V18.5312ZM82.3542 10.3596H81.4847C80.7394 10.3596 80.3144 10.7129 80.3144 11.6419V15.4497C80.3144 16.3787 80.7394 16.7484 81.4847 16.7484H82.3542V10.3596ZM84.6458 10.3596V16.7484H85.5186C86.2606 16.7484 86.6856 16.3787 86.6856 15.4497V11.6419C86.6856 10.7129 86.2606 10.3596 85.5186 10.3596H84.6458V10.3596Z" fill="#333333"/>
<path d="M92.5644 12.4775H96.0877V14.336H92.5644V18.1447H97V20H90V7H97V8.85855H92.5644V12.4775Z" fill="#333333"/>
<path d="M105 14.7397V16.5586C105 18.7495 103.804 20 101.502 20C99.1957 20 98 18.7495 98 16.5586V9.44144C98 7.25049 99.1957 6 101.502 6C103.804 6 105 7.25049 105 9.44144V10.7712H102.779V9.30364C102.779 8.3253 102.31 7.95325 101.564 7.95325C100.818 7.95325 100.349 8.3253 100.349 9.30364V16.6964C100.349 17.6747 100.818 18.0261 101.564 18.0261C102.31 18.0261 102.779 17.6713 102.779 16.6964V14.7397H105Z" fill="#333333"/>
<path d="M114 14.7397V16.5586C114 18.7495 112.804 20 110.502 20C108.196 20 107 18.7495 107 16.5586V9.44144C107 7.25049 108.196 6 110.502 6C112.804 6 114 7.25049 114 9.44144V10.7712H111.779V9.30364C111.779 8.3253 111.31 7.95325 110.564 7.95325C109.818 7.95325 109.349 8.3253 109.349 9.30364V16.6964C109.349 17.6747 109.818 18.0261 110.564 18.0261C111.31 18.0261 111.779 17.6713 111.779 16.6964V14.7397H114Z" fill="#333333"/>
<path d="M117.589 20H115V7H117.243V15.2272L118.16 12.3681L120.224 7H123V20H120.732V10.8437L119.698 14.0365L117.589 20Z" fill="#333333"/>
<path d="M124 9.44144C124 7.25049 125.235 6 127.5 6C129.765 6 131 7.25049 131 9.44144V16.5586C131 18.7495 129.765 20 127.5 20C125.235 20 124 18.7495 124 16.5586V9.44144ZM126.306 16.6964C126.306 17.6747 126.768 18.0468 127.5 18.0468C128.232 18.0468 128.694 17.6747 128.694 16.6964V9.30364C128.694 8.3253 128.232 7.95325 127.5 7.95325C126.768 7.95325 126.306 8.3253 126.306 9.30364V16.6964Z" fill="#333333"/>
<path d="M135.533 20H133V7H135.533V12.571H138.417V7H141V20H138.417V14.429H135.533V20Z" fill="#333333"/>
<path d="M150 20H147.695L147.298 17.6414H144.494L144.098 20H142L144.325 7H147.669L150 20ZM144.785 15.8782H146.985L145.885 9.30297L144.785 15.8782Z" fill="#333333"/>
<path d="M151 18.1475C152.13 18.1475 152.497 18.0168 152.542 16.8113L152.95 7H160V19.9837H157.464V8.85574H155.287L155.015 16.7002C154.924 19.0754 153.881 20 151.387 20H151.003V18.1475H151Z" fill="#333333"/>
<path d="M161 19.9967V7H163.36V11.8828H164.477C166.84 11.8828 168 13.0176 168 15.0976V16.7884C168 18.8684 166.84 20 164.477 20H161V19.9967ZM164.477 18.1391C165.227 18.1391 165.637 17.8415 165.637 16.9127V14.9635C165.637 14.0347 165.227 13.7404 164.477 13.7404H163.36V18.1391H164.477Z" fill="#333333"/>
<path d="M172.533 20H170V7H172.533V12.571H175.417V7H178V20H175.417V14.429H172.533V20Z" fill="#333333"/>
<path d="M179 19.9967V7H181.422V11.8828H182.568C184.994 11.8828 186.184 13.0176 186.184 15.0976V16.7884C186.184 18.8684 184.994 20 182.568 20H179V19.9967ZM182.572 18.1391C183.342 18.1391 183.762 17.8415 183.762 16.9127V14.9635C183.762 14.0347 183.342 13.7404 182.572 13.7404H181.425V18.1391H182.572ZM187.575 19.9967V7H190V19.9967H187.575Z" fill="#333333"/>
<path d="M193.589 20H191V6.91687H193.243V15.1967L194.161 12.3193L196.224 6.91687H199V20H196.732V10.7852L195.698 13.9984L193.589 20ZM196.178 4C196.111 4.69136 195.72 4.85926 195.032 4.85926C194.369 4.85926 194.026 4.69136 193.956 4H192.397C192.443 5.27078 193.268 6.07407 195.032 6.07407C196.82 6.07407 197.716 5.27078 197.716 4H196.178V4Z" fill="#333333"/>
<path d="M53.9415 36H52V25H53.683V31.9634L54.3722 29.5429L55.9194 25H58V36H56.2971V28.2528L55.5218 30.9543L53.9415 36Z" fill="#333333"/>
<path d="M60.9 36H59V25H60.9V29.7163H63.0633V25H65V36H63.0633V31.2837H60.9V36Z" fill="#333333"/>
<path d="M72.806 27.5289V27.9208C72.806 29.0517 72.418 29.7767 71.5536 30.1375C72.595 30.5017 73 31.3343 73 32.4964V33.3914C73 35.0877 71.996 36 70.0528 36H67V25H69.9302C71.9416 25 72.806 25.8325 72.806 27.5289ZM68.9399 26.5714V29.4784H69.6988C70.4237 29.4784 70.8627 29.1974 70.8627 28.3163V27.7023C70.8627 26.9183 70.5632 26.5714 69.8724 26.5714H68.9399ZM68.9399 31.0533V34.4355H70.0528C70.7062 34.4355 71.0567 34.1684 71.0567 33.3497V32.3888C71.0567 31.3655 70.6858 31.0533 69.8043 31.0533H68.9399V31.0533Z" fill="#333333"/>
<path d="M75.8316 29.6365H78.3477V31.2074H75.8316V34.4291H79V36H74V25H79V26.5709H75.8316V29.6365Z" fill="#333333"/>
<path d="M86 31.8657V33.2958C86 35.0173 84.9735 36 83.0018 36C81.0265 36 80 35.0173 80 33.2958V27.7043C80 25.9827 81.0265 25 83.0018 25C84.9771 25 86 25.9827 86 27.7043V28.748H84.0952V27.5958C84.0952 26.8299 83.6931 26.5351 83.0547 26.5351C82.4162 26.5351 82.0141 26.8266 82.0141 27.5958V33.4008C82.0141 34.1667 82.4162 34.4445 83.0547 34.4445C83.6931 34.4445 84.0952 34.1667 84.0952 33.4008V31.8657H86V31.8657Z" fill="#333333"/>
<path d="M86 25H92V26.5709H89.9728V36H88.0306V26.5709H86.0034V25H86Z" fill="#333333"/>
<path d="M94.9415 36H93V25H94.6831V31.9634L95.3722 29.5429L96.9194 25H99V36H97.2971V28.2528L96.5218 30.9543L94.9415 36Z" fill="#333333"/>
<path d="M100 25H101.947V34.0717H104.164V25H106.149V34.0984H107V37H105.104V35.5792H100V25Z" fill="#333333"/>
<path d="M109.941 36H108V25H109.683V31.9634L110.372 29.5429L111.919 25H114V36H112.297V28.2528L111.522 30.9543L109.941 36Z" fill="#333333"/>
<path d="M115 27.7043C115 25.9827 116.06 25 118 25C119.94 25 121 25.9827 121 27.7043V33.2958C121 35.0173 119.94 36 118 36C116.06 36 115 35.0173 115 33.2958V27.7043ZM116.978 33.4042C116.978 34.1701 117.373 34.4649 118 34.4649C118.627 34.4649 119.022 34.1734 119.022 33.4042V27.5958C119.022 26.8299 118.627 26.5351 118 26.5351C117.373 26.5351 116.978 26.8266 116.978 27.5958V33.4042Z" fill="#333333"/>
<path d="M123.9 36H122V25H123.9V29.7163H126.063V25H128V36H126.063V31.2837H123.9V36Z" fill="#333333"/>
<path d="M131.9 36H130V25H131.9V29.7163H134.063V25H136V36H134.063V31.2837H131.9V36Z" fill="#333333"/>
<path d="M137 36V25H138.981V29.1337H139.92C141.905 29.1337 142.878 30.0943 142.878 31.8525V33.2812C142.878 35.0429 141.905 36 139.92 36H137V36ZM139.92 34.4291C140.553 34.4291 140.893 34.1759 140.893 33.3922V31.7415C140.893 30.9578 140.549 30.7046 139.92 30.7046H138.981V34.4291H139.92ZM144.015 36V25H146V36H144.015Z" fill="#333333"/>
<path d="M148.941 35H147V24.3694H148.683V31.099L149.372 28.7597L150.919 24.3694H153V35H151.297V27.513L150.522 30.1237L148.941 35ZM150.883 22C150.833 22.563 150.538 22.6971 150.025 22.6971C149.528 22.6971 149.269 22.563 149.216 22H148.047C148.08 23.0322 148.7 23.6857 150.022 23.6857C151.363 23.6857 152.033 23.0322 152.033 22H150.883Z" fill="#333333"/>
<path d="M164 36H161.982L161.635 34.0025H159.183L158.836 36H157L159.036 25H161.961L164 36ZM159.438 32.5113H161.365L160.402 26.9455L159.438 32.5113Z" fill="#333333"/>
<path d="M164 34.4315C164.881 34.4315 165.163 34.3207 165.2 33.2993L165.516 25H171V35.9827H169.028V26.5685H167.335L167.124 33.2059C167.053 35.214 166.244 36 164.303 36H164.003V34.4315H164Z" fill="#333333"/>
<path d="M172 36V25H174.022V29.1337H174.98C177.007 29.1337 178 30.0943 178 31.8525V33.2812C178 35.0429 177.007 36 174.98 36H172V36ZM174.98 34.4291C175.626 34.4291 175.974 34.1759 175.974 33.3922V31.7415C175.974 30.9578 175.623 30.7046 174.98 30.7046H174.022V34.4291H174.98Z" fill="#333333"/>
<path d="M179 35.9965C179.193 35.5875 179.21 35.1957 179.21 34.6618V32.9666C179.21 31.8191 179.527 30.9871 180.491 30.6265C179.632 30.266 179.23 29.5276 179.23 28.3974V27.5307C179.23 25.8355 180.088 25 182.09 25H185V35.9965H183.07V31.521H182.404C181.528 31.521 181.143 31.8988 181.143 32.9215V34.648C181.143 35.5424 181.072 35.7157 180.967 36H179V35.9965ZM182.14 26.5704C181.454 26.5704 181.157 26.9171 181.157 27.7006V28.7857C181.157 29.6662 181.596 29.9471 182.313 29.9471H183.066V26.5704H182.14Z" fill="#333333"/>
<path d="M187.9 36H186V25H187.9V29.7163H190.063V25H192V36H190.063V31.2837H187.9V36Z" fill="#333333"/>
<path d="M199 31.8657V33.2958C199 35.0173 197.974 36 196.002 36C194.026 36 193 35.0173 193 33.2958V27.7043C193 25.9827 194.026 25 196.002 25C197.977 25 199 25.9827 199 27.7043V28.748H197.095V27.5958C197.095 26.8299 196.693 26.5351 196.055 26.5351C195.416 26.5351 195.014 26.8266 195.014 27.5958V33.4008C195.014 34.1667 195.416 34.4445 196.055 34.4445C196.693 34.4445 197.095 34.1667 197.095 33.4008V31.8657H199V31.8657Z" fill="#333333"/>
<path d="M54.2045 43.4081C53.4986 43.3608 52.9562 43.1719 52.5737 42.8382C52.1912 42.5044 52 42.0573 52 41.4937C52 40.9238 52.1947 40.4704 52.5772 40.1335C52.9631 39.7997 53.5056 39.6077 54.2045 39.5573V39H54.8686V39.5573C55.5431 39.6077 56.0681 39.7997 56.4402 40.1366C56.8122 40.4736 57 40.927 57 41.4937C57 42.0542 56.8122 42.5044 56.4402 42.8382C56.0681 43.1719 55.5431 43.3608 54.8686 43.4081V44H54.2045V43.4081ZM54.2045 40.0768C53.1857 40.1618 52.6745 40.6247 52.6745 41.4717C52.6745 41.9062 52.8032 42.2399 53.0605 42.4792C53.3213 42.7154 53.7003 42.8571 54.2045 42.9043V40.0768ZM54.872 42.9043C55.3519 42.8571 55.7135 42.7154 55.9604 42.4761C56.2072 42.2368 56.3324 41.903 56.3324 41.4717C56.3324 41.0497 56.2072 40.7223 55.9604 40.4893C55.7135 40.2563 55.3519 40.1178 54.872 40.0768V42.9043Z" fill="#333333"/>
<path d="M61.4965 44C61.1208 44 60.7802 43.9266 60.4747 43.7869C60.1692 43.6436 59.9059 43.4584 59.6847 43.2243C59.467 42.9902 59.2985 42.7247 59.1791 42.4207C59.0597 42.1202 59 41.8127 59 41.4983C59 41.1698 59.0632 40.8553 59.1896 40.5549C59.316 40.2544 59.4916 39.9888 59.7163 39.7547C59.941 39.5241 60.2044 39.3389 60.5133 39.2062C60.8188 39.0699 61.1524 39 61.5105 39C61.8827 39 62.2233 39.0734 62.5253 39.2166C62.8308 39.3634 63.0906 39.5556 63.3118 39.7897C63.533 40.0273 63.7015 40.2928 63.8209 40.5933C63.9403 40.8903 64 41.1943 64 41.5052C64 41.8337 63.9368 42.1481 63.8069 42.4486C63.6805 42.7491 63.5049 43.0147 63.2837 43.2453C63.0625 43.4759 62.7992 43.6576 62.4902 43.7939C62.1882 43.9301 61.8546 44 61.4965 44ZM59.6812 41.5017C59.6812 41.7498 59.7268 41.9909 59.8111 42.2285C59.8989 42.4626 60.0218 42.6688 60.1798 42.847C60.3413 43.0287 60.5309 43.1719 60.7556 43.2767C60.9803 43.3816 61.2296 43.4375 61.5035 43.4375C61.7879 43.4375 62.0407 43.3781 62.2654 43.2663C62.4902 43.1509 62.6798 43.0042 62.8378 42.8225C62.9958 42.6408 63.1152 42.4347 63.1959 42.2041C63.2802 41.9734 63.3188 41.7393 63.3188 41.5017C63.3188 41.2502 63.2767 41.0091 63.1889 40.775C63.1011 40.5409 62.9782 40.3347 62.8167 40.1565C62.6552 39.9783 62.4621 39.8351 62.2409 39.7303C62.0197 39.6219 61.7739 39.5695 61.5035 39.5695C61.2191 39.5695 60.9663 39.6254 60.7416 39.7372C60.5169 39.8491 60.3272 39.9923 60.1692 40.174C60.0112 40.3557 59.8919 40.5618 59.8076 40.7925C59.7233 41.0266 59.6812 41.2607 59.6812 41.5017Z" fill="#333333"/>
<path d="M71 39V44H70.3707V41.7234H67.6293V44H67V39H67.6293V41.1631H70.3707V39H71Z" fill="#333333"/>
<path d="M73 43.2192H73.0689C73.1723 43.2125 73.2688 43.1956 73.3618 43.1686C73.4549 43.1383 73.541 43.0877 73.6203 43.0101C73.6995 42.9325 73.7719 42.828 73.8408 42.6931C73.9097 42.5548 73.9752 42.3828 74.0338 42.1669C74.0924 41.9511 74.144 41.6914 74.1923 41.3879C74.2405 41.0809 74.2819 40.7201 74.3198 40.2985L74.4369 39H77.1937V43.2192H78V45H77.4142V43.7555H73.5927V45H73.0069V43.2192H73ZM76.5286 43.2192V39.5363H75.0469L74.9711 40.3288C74.8987 41.1282 74.7953 41.7589 74.6609 42.2209C74.5265 42.683 74.3473 43.0169 74.1234 43.2226H76.5286V43.2192Z" fill="#333333"/>
<path d="M86.4384 39H87V44H86.4384V41.8865C86.3686 41.9149 86.2987 41.9433 86.2289 41.9645C86.1591 41.9858 86.0805 42.0071 85.999 42.0248C85.9146 42.0426 85.8244 42.0532 85.7226 42.0603C85.6208 42.0674 85.5073 42.0709 85.3792 42.0709C85.1232 42.0709 84.9079 42.0284 84.7274 41.9397C84.55 41.8511 84.4074 41.7305 84.3026 41.578C84.195 41.422 84.1164 41.2411 84.0698 41.0319C84.0233 40.8227 84 40.5957 84 40.3546V39.0035H84.5616V40.234C84.5616 40.4681 84.5761 40.6667 84.6052 40.8262C84.6343 40.9894 84.6838 41.1206 84.7565 41.2163C84.8293 41.3156 84.9224 41.3865 85.0417 41.4326C85.1581 41.4787 85.3065 41.5 85.484 41.5C85.7197 41.5 85.9176 41.4752 86.0776 41.4255C86.2376 41.3759 86.3569 41.3121 86.4384 41.2376V39V39Z" fill="#333333"/>
<path d="M92.2175 39H92.7933L95 44H94.2704L93.6302 42.5355H91.3627L90.7332 44H90L92.2175 39ZM93.4764 42.0426L92.5036 39.7305L91.4986 42.0426H93.4764Z" fill="#333333"/>
<path d="M96 41.4615C96 41.1639 96.0489 40.8697 96.1468 40.5756C96.2446 40.2815 96.3884 40.0189 96.5749 39.7808C96.7645 39.5462 96.9939 39.3571 97.2691 39.2136C97.5443 39.07 97.8532 39 98.1988 39C98.6116 39 98.9664 39.098 99.2599 39.2976C99.5566 39.4972 99.7737 39.7563 99.9174 40.0784L99.4557 40.3971C99.3853 40.2395 99.3027 40.1064 99.2049 40.0014C99.107 39.8929 99 39.8088 98.8869 39.7423C98.7706 39.6793 98.6544 39.6303 98.5321 39.6022C98.4098 39.5742 98.2905 39.5602 98.1743 39.5602C97.9174 39.5602 97.6911 39.6162 97.4954 39.7318C97.2966 39.8438 97.1315 39.9944 96.9969 40.1765C96.8624 40.3585 96.7615 40.5651 96.6942 40.7962C96.6269 41.0238 96.5933 41.2549 96.5933 41.486C96.5933 41.7451 96.633 41.9902 96.7125 42.2283C96.7951 42.4629 96.9052 42.6695 97.0489 42.848C97.1927 43.0301 97.3609 43.1737 97.5566 43.2787C97.7523 43.3838 97.9633 43.4398 98.1957 43.4398C98.318 43.4398 98.4434 43.4223 98.5688 43.3908C98.6972 43.3592 98.8196 43.3067 98.9358 43.2332C99.052 43.1597 99.1621 43.0686 99.263 42.9601C99.367 42.8515 99.4495 42.722 99.5138 42.5679L100 42.8515C99.9266 43.0371 99.8226 43.2017 99.6911 43.3417C99.5566 43.4853 99.4098 43.6043 99.2416 43.6989C99.0734 43.7969 98.896 43.8704 98.7125 43.923C98.526 43.9755 98.3425 44 98.1651 44C97.8471 44 97.5596 43.923 97.2936 43.7759C97.0306 43.6254 96.8012 43.4328 96.6055 43.1947C96.4128 42.9566 96.263 42.687 96.159 42.3824C96.052 42.0847 96 41.7766 96 41.4615Z" fill="#333333"/>
<path d="M106.997 39.5607H105.308V44H104.689V39.5607H103V39H107V39.5607H106.997Z" fill="#333333"/>
<path d="M114 39V44H113.371V41.7234H110.629V44H110V39H110.629V41.1631H113.371V39H114Z" fill="#333333"/>
<path d="M117 39H117.689V40.844H118.857C119.112 40.844 119.35 40.8794 119.57 40.9468C119.794 41.0142 119.985 41.1135 120.151 41.2447C120.313 41.3759 120.443 41.539 120.536 41.7376C120.634 41.9362 120.681 42.1631 120.681 42.422C120.681 42.6809 120.63 42.9078 120.533 43.1028C120.435 43.3014 120.306 43.4645 120.14 43.5957C119.974 43.727 119.779 43.8262 119.556 43.8936C119.332 43.9645 119.098 43.9965 118.857 43.9965H117V39V39ZM117.689 43.4504H118.857C119.235 43.4504 119.516 43.3582 119.704 43.1702C119.891 42.9858 119.985 42.734 119.985 42.422C119.985 42.1064 119.888 41.8582 119.693 41.6702C119.498 41.4823 119.221 41.3901 118.857 41.3901H117.689V43.4504ZM121.311 44V39.0071H122V44H121.311Z" fill="#333333"/>
<path d="M124.634 39L126.003 41.083L127.372 39H128L126.31 41.5337L127.949 44H127.321L126.003 41.9844L124.685 44H124.051L125.69 41.5337L124 39H124.634Z" fill="#333333"/>
<path d="M134.625 43.0319L137.487 39H138V44H137.375V40.0355L134.563 44H134V39H134.625V43.0319V43.0319Z" fill="#333333"/>
<path d="M145 39V44H144.371V41.7234H141.629V44H141V39H141.629V41.1631H144.371V39H145Z" fill="#333333"/>
<path d="M152 42.7128C152 42.9043 151.959 43.0816 151.879 43.2411C151.796 43.4007 151.686 43.5355 151.548 43.6489C151.406 43.7624 151.248 43.8475 151.065 43.9078C150.882 43.9716 150.685 44 150.475 44H148V39H150.592C150.775 39 150.937 39.039 151.082 39.1135C151.227 39.1879 151.355 39.2872 151.458 39.4043C151.562 39.5248 151.641 39.6596 151.696 39.8121C151.752 39.9645 151.783 40.117 151.783 40.273C151.783 40.5213 151.717 40.7518 151.586 40.9645C151.455 41.1738 151.272 41.3333 151.034 41.4362C151.33 41.5213 151.569 41.6773 151.741 41.9043C151.914 42.1348 152 42.4043 152 42.7128ZM148.659 39.5532V41.2234H150.319C150.437 41.2234 150.544 41.2021 150.644 41.156C150.74 41.1099 150.827 41.0496 150.896 40.9752C150.968 40.8972 151.023 40.8121 151.065 40.7092C151.106 40.6064 151.127 40.5 151.127 40.3901C151.127 40.273 151.106 40.1631 151.068 40.0603C151.027 39.9574 150.975 39.8652 150.909 39.7908C150.84 39.7163 150.761 39.656 150.664 39.6135C150.568 39.5709 150.468 39.5496 150.361 39.5496H148.659V39.5532ZM151.334 42.6028C151.334 42.4894 151.313 42.3794 151.272 42.2731C151.227 42.1667 151.172 42.0745 151.103 41.9965C151.03 41.9149 150.947 41.8511 150.847 41.805C150.751 41.7589 150.644 41.734 150.526 41.734H148.659V43.4539H150.475C150.599 43.4539 150.709 43.4291 150.813 43.383C150.916 43.3369 151.006 43.2731 151.085 43.195C151.165 43.117 151.227 43.0284 151.268 42.9255C151.31 42.8227 151.334 42.7128 151.334 42.6028Z" fill="#333333"/>
<path d="M158 43.4362V44H155V39H157.944V39.5603H155.561V41.1809H157.635V41.7092H155.561V43.4362H158Z" fill="#333333"/>
<path d="M161 41.4615C161 41.1639 161.049 40.8697 161.147 40.5756C161.245 40.2815 161.388 40.0189 161.575 39.7808C161.765 39.5462 161.994 39.3571 162.269 39.2136C162.544 39.07 162.853 39 163.199 39C163.612 39 163.966 39.098 164.26 39.2976C164.557 39.4972 164.774 39.7563 164.917 40.0784L164.456 40.3971C164.385 40.2395 164.303 40.1064 164.205 40.0014C164.107 39.8929 164 39.8088 163.887 39.7423C163.771 39.6793 163.654 39.6303 163.532 39.6022C163.41 39.5742 163.291 39.5602 163.174 39.5602C162.917 39.5602 162.691 39.6162 162.495 39.7318C162.297 39.8438 162.132 39.9944 161.997 40.1765C161.862 40.3585 161.761 40.5651 161.694 40.7962C161.627 41.0238 161.593 41.2549 161.593 41.486C161.593 41.7451 161.633 41.9902 161.713 42.2283C161.795 42.4629 161.905 42.6695 162.049 42.848C162.193 43.0301 162.361 43.1737 162.557 43.2787C162.752 43.3838 162.963 43.4398 163.196 43.4398C163.318 43.4398 163.443 43.4223 163.569 43.3908C163.697 43.3592 163.82 43.3067 163.936 43.2332C164.052 43.1597 164.162 43.0686 164.263 42.9601C164.367 42.8515 164.45 42.722 164.514 42.5679L165 42.8515C164.927 43.0371 164.823 43.2017 164.691 43.3417C164.557 43.4853 164.41 43.6043 164.242 43.6989C164.073 43.7969 163.896 43.8704 163.713 43.923C163.526 43.9755 163.343 44 163.165 44C162.847 44 162.56 43.923 162.294 43.7759C162.031 43.6254 161.801 43.4328 161.606 43.1947C161.41 42.9566 161.263 42.687 161.159 42.3824C161.052 42.0847 161 41.7766 161 41.4615Z" fill="#333333"/>
<path d="M170.997 39.5607H169.308V44H168.689V39.5607H167V39H171V39.5607H170.997Z" fill="#333333"/>
<path d="M174.625 43.0319L177.487 39H178V44H177.375V40.0355L174.563 44H174V39H174.625V43.0319Z" fill="#333333"/>
<path d="M184.496 43.7555H181V39H181.57V43.2192H183.732V39H184.302V43.2192H185V45H184.493V43.7555H184.496Z" fill="#333333"/>
<path d="M188.625 43.0319L191.487 39H192V44H191.375V40.0355L188.563 44H188V39H188.625V43.0319Z" fill="#333333"/>
<path d="M195.625 43.1L198.487 39.3516H199V44H198.375V40.3143L195.563 44H195V39.3516H195.625V43.1ZM198.173 38C198.163 38.244 198.061 38.4319 197.868 38.5637C197.675 38.6989 197.424 38.7648 197.113 38.7648C196.802 38.7648 196.55 38.6989 196.357 38.5637C196.164 38.4319 196.063 38.2407 196.056 38H196.426C196.426 38.1187 196.491 38.2209 196.629 38.3099C196.763 38.3989 196.926 38.4451 197.123 38.4451C197.309 38.4451 197.463 38.4022 197.587 38.3165C197.715 38.2308 197.787 38.1253 197.809 38H198.173Z" fill="#333333"/>
<defs>
<linearGradient id="paint0_linear_2_684" x1="-0.518647" y1="25.0021" x2="32.3729" y2="25.0021" gradientUnits="userSpaceOnUse">
<stop offset="0.1927" stop-color="#019245"/>
<stop offset="1" stop-color="#006837"/>
</linearGradient>
<linearGradient id="paint1_linear_2_684" x1="10.7488" y1="25.9976" x2="30.5335" y2="25.9976" gradientUnits="userSpaceOnUse">
<stop offset="0.1927" stop-color="#019245"/>
<stop offset="1" stop-color="#006837"/>
</linearGradient>
<linearGradient id="paint2_linear_2_684" x1="13.0008" y1="3.37709" x2="13.0008" y2="36.8727" gradientUnits="userSpaceOnUse">
<stop offset="0.1927" stop-color="#0071BC"/>
<stop offset="0.8184" stop-color="#025EA9"/>
</linearGradient>
<linearGradient id="paint3_linear_2_684" x1="24.0014" y1="2.40125" x2="24.0014" y2="36.7665" gradientUnits="userSpaceOnUse">
<stop offset="0.1927" stop-color="#0071BC"/>
<stop offset="0.8184" stop-color="#025EA9"/>
</linearGradient>
<linearGradient id="paint4_linear_2_684" x1="33.9971" y1="2.65921" x2="33.9971" y2="36.9153" gradientUnits="userSpaceOnUse">
<stop offset="0.1927" stop-color="#0071BC"/>
<stop offset="0.8184" stop-color="#025EA9"/>
</linearGradient>
</defs>
</svg>
