<svg width="40" height="40" viewBox="0 0 40 40" fill="none" xmlns="http://www.w3.org/2000/svg">
<path d="M20 40C31.0457 40 40 31.0457 40 20C40 8.9543 31.0457 0 20 0C8.95431 0 0 8.9543 0 20C0 31.0457 8.95431 40 20 40Z" fill="#2392B5"/>
<path d="M28.9588 11.3871C28.883 11.1598 28.7925 11.0962 28.6525 11.0417C28.3462 10.9205 27.827 11.1023 27.827 11.1023C27.827 11.1023 9.42412 17.9749 8.37402 18.7355C8.1465 18.8992 8.07066 18.9931 8.03566 19.1052C7.85481 19.6477 8.4207 19.8871 8.4207 19.8871L13.1636 21.4931C13.1636 21.4931 13.3416 21.5204 13.4028 21.478C14.4821 20.7689 24.2596 14.3568 24.8226 14.1416C24.913 14.1144 24.9772 14.1447 24.9597 14.2083C24.7351 15.0325 16.2439 22.8719 16.2439 22.8719C16.2439 22.8719 16.2118 22.9143 16.1914 22.9628L16.1797 22.9567L15.7364 27.8446C15.7364 27.8446 15.5497 29.3415 16.9936 27.8446C18.0116 26.787 18.9946 25.9052 19.4875 25.4749C21.1181 26.6446 22.8741 27.9385 23.6296 28.6143C24.0088 28.9537 24.3296 29.0082 24.5892 28.9991C25.3068 28.9718 25.5081 28.1506 25.5081 28.1506C25.5081 28.1506 28.8625 14.1295 28.9734 12.2507C28.985 12.0659 28.9996 11.9507 28.9996 11.8235C29.0025 11.6477 28.988 11.4689 28.9588 11.3871Z" fill="white"/>
</svg>
