<svg width="40" height="40" viewBox="0 0 40 40" fill="none" xmlns="http://www.w3.org/2000/svg">
<path d="M20 40C31.0457 40 40 31.0457 40 20C40 8.9543 31.0457 0 20 0C8.9543 0 0 8.9543 0 20C0 31.0457 8.9543 40 20 40Z" fill="#2392B5"/>
<path fill-rule="evenodd" clip-rule="evenodd" d="M29.3546 10.7775C27.0058 8.34244 23.8779 7 20.5494 7C13.6889 7 8.10464 12.7791 8.10174 19.8826C8.10174 22.1521 8.67442 24.3705 9.76454 26.3239L8 33L14.5988 31.2091C16.4157 32.2355 18.4651 32.7773 20.5465 32.7773H20.5523C27.4128 32.7773 32.9971 26.9981 33 19.8916C32.9971 16.4513 31.7035 13.2125 29.3546 10.7775ZM20.5465 30.6011H20.5436C18.686 30.6011 16.8663 30.0834 15.2791 29.1081L14.9012 28.8764L10.9855 29.9389L12.032 25.9868L11.7849 25.5805C10.75 23.8768 10.2035 21.9053 10.2035 19.8826C10.2064 13.9771 14.8459 9.17319 20.5552 9.17319C23.3198 9.17319 25.9157 10.2899 27.8692 12.3126C29.8227 14.3353 30.8983 17.0262 30.8954 19.8886C30.8924 25.7972 26.25 30.6011 20.5465 30.6011ZM26.2238 22.5795C25.9128 22.417 24.3837 21.6404 24.0988 21.5321C23.814 21.4237 23.6075 21.3695 23.3982 21.6946C23.1919 22.0167 22.5959 22.7421 22.4128 22.9558C22.2326 23.1695 22.0494 23.1966 21.7384 23.037C21.4273 22.8745 20.4244 22.5374 19.2384 21.4388C18.3139 20.5839 17.6889 19.5304 17.5087 19.2084C17.3285 18.8863 17.4884 18.7117 17.6453 18.5522C17.7849 18.4077 17.9564 18.176 18.1105 17.9893C18.2645 17.8027 18.3169 17.6673 18.4215 17.4536C18.5262 17.2399 18.4738 17.0502 18.3954 16.8907C18.3169 16.7282 17.6948 15.1449 17.436 14.5008C17.1831 13.8717 16.9273 13.959 16.7355 13.947C16.5552 13.9379 16.3459 13.9349 16.1395 13.9349C15.9331 13.9349 15.5959 14.0162 15.311 14.3383C15.0262 14.6603 14.2238 15.4399 14.2238 17.0232C14.2238 18.6064 15.3372 20.1385 15.4942 20.3522C15.6512 20.5659 17.686 23.8196 20.8081 25.2132C21.5494 25.5443 22.1308 25.743 22.5814 25.8905C23.3256 26.1343 24.0058 26.1012 24.5407 26.0169C25.1395 25.9236 26.3808 25.2373 26.6395 24.4848C26.8983 23.7323 26.8983 23.0882 26.8198 22.9528C26.7413 22.8233 26.5349 22.7421 26.2238 22.5795Z" fill="white"/>
</svg>
