<svg width="51" height="51" viewBox="0 0 51 51" fill="none" xmlns="http://www.w3.org/2000/svg">
<circle cx="25.8972" cy="25.9048" r="25" fill="white"/>
<path d="M17.564 24.9048C17.0117 24.9048 16.564 25.3525 16.564 25.9048C16.564 26.4571 17.0117 26.9048 17.564 26.9048L17.564 24.9048ZM35.7711 26.6119C36.1616 26.2214 36.1616 25.5882 35.7711 25.1977L29.4071 18.8337C29.0166 18.4432 28.3834 18.4432 27.9929 18.8337C27.6024 19.2242 27.6024 19.8574 27.9929 20.2479L33.6498 25.9048L27.9929 31.5616C27.6024 31.9522 27.6024 32.5853 27.9929 32.9759C28.3834 33.3664 29.0166 33.3664 29.4071 32.9759L35.7711 26.6119ZM17.564 26.9048L35.064 26.9048L35.064 24.9048L17.564 24.9048L17.564 26.9048Z" fill="#BDBDBD"/>
</svg>
